PathFileType	4	(X/Y/Z)	Kaydara																																																																																																																																																																																																																												
DataRate	CameraRate	NumFrames	NumMarkers	Units	OrigDataRate	OrigDataStartFrame	OrigNumFrames																																																																																																																																																																																																																								
60	60	4	74	mm	60	2250	226																																																																																																																																																																																																																								
Frame#	Time	N_lasi			N_rasi			N_rpsi			N_lpsi			N_fneck			N_bneck			N_fhead			N_rhead			N_lhead			N_rshld			N_relbtop			N_relbext			N_relblow			N_rwrext			N_rwrtop			N_rwrlow			N_lshld			N_lelblow			N_lelbtop			N_lwrext			N_lwrtop			N_lwrlow			N_rtopleg			N_ltopleg			N_rkneefr			N_rkneebk			N_rkneeis			N_lkneefr			N_lknssbk			N_lkneeis			N_rankfr			N_rankis			N_rankbk			N_lankfr			N_lankbk			N_lankis			D_lasi			D_rasi			D_lpsi			D_fneck			D_bneck			D_fhead			D_rhead			D_lhead			D_rshld			D_relbtop			D_relbext			D_relblow			D_rwrext			D_rwrtop			D_rwrlow			D_lshld			D_lelbext			D_lelblow			D_lelbtop			D_lwrext			D_lwrtop			D_lwrlow			D_rtopleg			D_ltopleg			D_rkneefr			D_rkneebk			D_rkneeis			D_lkneefr			D_lknssbk			D_lkneeis			D_rankfr			D_rankis			D_rankbk			D_lankfr			D_lankbk			D_lankis			D_rpsi			N_lelbext		
		X1	Y1	Z1	X2	Y2	Z2	X3	Y3	Z3	X4	Y4	Z4	X5	Y5	Z5	X6	Y6	Z6	X7	Y7	Z7	X8	Y8	Z8	X9	Y9	Z9	X10	Y10	Z10	X11	Y11	Z11	X12	Y12	Z12	X13	Y13	Z13	X14	Y14	Z14	X15	Y15	Z15	X16	Y16	Z16	X17	Y17	Z17	X18	Y18	Z18	X19	Y19	Z19	X20	Y20	Z20	X21	Y21	Z21	X22	Y22	Z22	X23	Y23	Z23	X24	Y24	Z24	X25	Y25	Z25	X26	Y26	Z26	X27	Y27	Z27	X28	Y28	Z28	X29	Y29	Z29	X30	Y30	Z30	X31	Y31	Z31	X32	Y32	Z32	X33	Y33	Z33	X34	Y34	Z34	X35	Y35	Z35	X36	Y36	Z36	X37	Y37	Z37	X38	Y38	Z38	X39	Y39	Z39	X40	Y40	Z40	X41	Y41	Z41	X42	Y42	Z42	X43	Y43	Z43	X44	Y44	Z44	X45	Y45	Z45	X46	Y46	Z46	X47	Y47	Z47	X48	Y48	Z48	X49	Y49	Z49	X50	Y50	Z50	X51	Y51	Z51	X52	Y52	Z52	X53	Y53	Z53	X54	Y54	Z54	X55	Y55	Z55	X56	Y56	Z56	X57	Y57	Z57	X58	Y58	Z58	X59	Y59	Z59	X60	Y60	Z60	X61	Y61	Z61	X62	Y62	Z62	X63	Y63	Z63	X64	Y64	Z64	X65	Y65	Z65	X66	Y66	Z66	X67	Y67	Z67	X68	Y68	Z68	X69	Y69	Z69	X70	Y70	Z70	X71	Y71	Z71	X72	Y72	Z72	X73	Y73	Z73	X74	Y74	Z74
																																																																																																																																																																																																																															
29	37.483	-530.94627	1260.24681	-66.50454	-525.38021	1271.3195	-296.05558	-263.33021	1234.56207	-355.5106	-277.34148	1226.50703	-6.7457	-385.25158	1608.228	-166.76306	-222.75837	1662.00531	-144.8604	-477.23644	1795.27008	-182.42989	-280.83403	1778.28217	-229.7208	-339.04198	1777.9599	-84.25459	-258.10051	1651.00235	-344.93568	-274.51132	1652.99408	-617.93304	-361.99463	1629.67941	-611.86623	-318.10564	1722.22366	-578.22319	-329.74388	1789.94202	-914.8082	-369.76967	1814.80194	-906.09085	-405.40657	1784.03229	-902.0697	-238.58341	1621.86935	9.75083	-255.16432	1673.03177	260.74999	-247.82343	1590.66437	290.57446	-243.87754	1715.20309	591.25267	-263.11905	1757.95944	584.46953	-312.25531	1735.80231	582.75906	-425.64209	1068.51952	-434.40598	-371.95969	1041.91528	47.37542	-431.33759	560.67543	-256.6169	-326.67816	579.37027	-326.48922	-368.07224	564.26903	-164.53075	-381.11553	539.38103	-98.85098	-254.36703	556.35609	-40.14169	-256.62386	548.08971	-189.95399	-297.30196	140.24821	-271.35159	-299.02901	154.95976	-191.36475	-217.05896	142.33404	-216.41163	-332.35962	193.33185	-117.5732	-258.99897	186.087	-75.21895	-265.09897	194.587	-162.81895	-470.19363	1043.909	1743.55484	-436.43406	1063.13164	1456.73004	-274.14713	1133.76465	1743.85513	-410.11169	1570.20569	1583.05191	-267.96368	1596.14365	1591.64551	-451.78627	1774.77875	1575.20004	-292.24697	1725.24231	1495.38391	-295.42732	1735.77515	1651.16074	-298.84668	1596.10535	1503.43491	-421.68903	1739.97665	1296.39572	-455.84412	1747.6297	1361.15463	-355.48134	1766.97632	1341.56494	-445.99861	2017.00058	1326.77765	-399.44828	2014.14597	1358.70697	-433.23452	2000.94177	1400.39658	-319.63524	1583.10394	1768.51654	-425.59261	1543.92365	2032.19681	-331.74694	1595.03555	2017.44461	-350.34126	1520.84137	2039.98047	-368.45814	1621.84128	2279.13071	-397.18842	1652.48749	2266.85669	-439.34238	1625.54764	2257.60864	-344.25079	1005.17654	1410.36194	-327.90924	1010.96436	1810.88943	-378.18913	454.85809	1451.39984	-279.07602	491.85478	1423.58429	-285.61014	459.09405	1544.13559	-359.00986	448.07316	1772.21313	-246.6667	486.75018	1787.86331	-318.53237	444.41475	1680.36438	-325.00065	130.60504	1418.00751	-295.63263	127.31361	1483.13873	-244.67085	129.02254	1418.04962	-323.29887	135.01276	1792.93213	-250.87051	125.18766	1806.87332	-294.49123	124.5061	1733.58154	-251.2467	1149.78539	1527.45972	-334.79984	1609.19998	280.77908
30	37.5	-531.76136	1259.81041	-66.74945	-525.77465	1271.06911	-296.20167	-263.54565	1234.4175	-355.6258	-277.57757	1226.48689	-6.73996	-385.31448	1608.24249	-166.82642	-222.82127	1662.01981	-144.92376	-477.58198	1795.72556	-182.80735	-281.59409	1778.01071	-230.68911	-339.23191	1778.02307	-85.07611	-258.18333	1649.78088	-347.83932	-270.68651	1643.87802	-621.65096	-358.82622	1621.49765	-616.01692	-314.40052	1714.6814	-584.53064	-321.04198	1772.23099	-922.53471	-361.30295	1797.20612	-915.39406	-396.95442	1766.40457	-911.3913	-238.83881	1620.84198	11.18163	-251.12835	1664.23187	264.44654	-244.74272	1580.9024	291.451	-236.04454	1694.85764	595.49126	-255.1001	1738.04611	590.70576	-304.41622	1716.26968	588.9502	-425.99785	1068.32108	-434.55006	-372.19383	1041.51619	47.6322	-431.18229	560.67623	-256.53215	-326.62769	579.36237	-326.44409	-367.82955	564.21112	-164.43539	-381.10458	539.319	-98.89219	-254.52211	556.28384	-39.90784	-256.42677	548.08819	-189.80591	-297.26439	140.24621	-271.35523	-298.95287	154.9369	-191.36677	-217.00838	142.32455	-216.37293	-332.41867	193.27579	-117.57651	-259.02901	186.04778	-75.17771	-265.12901	194.54778	-162.77771	-469.98661	1043.84796	1743.63098	-436.33987	1063.11363	1456.88477	-274.01033	1133.71216	1743.92776	-410.00534	1570.23254	1583.19092	-267.93524	1596.10779	1591.80756	-451.71326	1774.74609	1575.22842	-292.03669	1725.13336	1495.06393	-295.38994	1735.79254	1651.25793	-298.79408	1596.16562	1503.4668	-421.75335	1739.96521	1296.43417	-455.88005	1747.58453	1361.22849	-355.52345	1766.97647	1341.6098	-446.29631	2016.97433	1327.05658	-399.52469	2014.10507	1358.80676	-433.30364	2000.84961	1400.59906	-319.54865	1583.03024	1768.7352	-425.53082	1543.50418	2032.35046	-331.74664	1594.64371	2017.77847	-350.69687	1520.23544	2039.40918	-368.54221	1621.15967	2279.88495	-397.1999	1651.73035	2267.13501	-439.38274	1624.77051	2257.7478	-344.17622	1005.1693	1410.38956	-327.75639	1010.87875	1810.73196	-378.18695	454.86027	1451.42303	-279.03679	491.81507	1423.59406	-285.54014	459.0818	1544.19998	-358.90892	448.07789	1772.25113	-246.57196	486.69315	1787.82532	-318.47279	444.40678	1680.40833	-325.00813	130.64261	1418.02643	-295.61735	127.30692	1483.14331	-244.6685	128.99619	1418.0719	-323.48236	135.05118	1793.08105	-250.84713	125.16551	1806.88629	-294.47861	124.50029	1733.58521	-251.13739	1149.76341	1527.48535	-331.51058	1600.57663	283.38394
31	37.517	-532.43061	1259.35684	-67.04107	-526.07964	1270.75844	-296.34253	-263.65635	1234.21791	-355.72189	-277.73113	1226.55052	-6.69894	-385.7618	1608.24188	-167.40555	-223.26857	1662.0192	-145.50288	-477.80758	1796.32706	-183.36454	-281.79306	1777.41364	-231.45866	-339.20708	1778.13004	-85.776	-258.24062	1648.52921	-350.44579	-267.44068	1634.96674	-624.7945	-355.50198	1613.09204	-619.48051	-310.75291	1706.9371	-590.14973	-312.47793	1754.33762	-929.49005	-352.85053	1779.56635	-923.98209	-388.56609	1748.93433	-919.70757	-239.07833	1619.92279	12.46395	-247.50874	1655.48859	267.65192	-242.07787	1571.30127	291.9548	-228.66859	1674.68903	599.06525	-247.49676	1717.94495	596.20106	-297.05103	1696.58859	594.35822	-426.32591	1067.96043	-434.80061	-372.26746	1041.17416	47.87223	-431.04366	560.69744	-256.40116	-326.59126	579.37042	-326.38271	-367.80281	564.22829	-164.23992	-381.13293	539.26617	-98.86645	-254.50031	556.27186	-39.76087	-256.34079	548.07533	-189.6246	-297.23179	140.25263	-271.34604	-298.92628	154.95682	-191.3134	-216.99352	142.27277	-216.33202	-332.37144	193.28533	-117.56682	-259.05787	185.99592	-75.12975	-265.15787	194.49592	-162.72975	-469.82529	1043.81653	1743.68942	-436.19358	1063.10806	1456.9278	-273.87045	1133.70689	1743.98178	-409.86092	1570.23163	1583.35052	-267.85025	1596.13068	1591.88202	-451.6206	1774.74945	1575.23102	-291.92297	1725.13931	1495.16617	-295.34191	1735.78735	1651.39267	-298.75839	1596.1676	1503.69705	-421.81675	1739.95071	1296.49017	-455.86571	1747.52106	1361.35498	-355.56339	1767.00867	1341.67648	-446.52992	2016.98395	1327.2789	-399.63097	2014.12323	1358.99094	-433.35945	2000.76935	1400.82092	-319.52869	1582.91199	1768.95233	-425.43098	1543.08105	2032.47925	-331.66393	1594.21844	2017.80991	-349.15352	1519.89532	2041.92764	-368.54828	1620.73257	2279.89136	-397.19738	1651.19293	2267.36725	-439.46342	1624.10034	2257.92313	-344.12575	1005.17555	1410.40283	-327.57236	1010.86411	1810.77347	-378.14198	454.85634	1451.4389	-279.00869	491.81454	1423.62854	-285.54047	459.08043	1544.19586	-358.77831	448.07758	1772.30911	-246.51814	486.65131	1787.83386	-318.42876	444.42337	1680.4361	-325.00107	130.65599	1418.0162	-295.61768	127.30798	1483.14407	-244.64846	128.98666	1418.05649	-323.30593	135.01894	1792.95029	-250.79641	125.13496	1806.86951	-294.46545	124.49519	1733.61115	-251.00134	1149.71741	1527.50992	-328.44524	1592.27295	285.26346
32	37.533	-532.89173	1259.01741	-67.37742	-526.46389	1270.27115	-296.56757	-263.72818	1233.92738	-355.85094	-277.73916	1226.64429	-6.68469	-386.3525	1608.27347	-167.79575	-223.85931	1662.05078	-145.89308	-477.77016	1796.81503	-183.98895	-281.92228	1776.74683	-232.49184	-339.34761	1778.27835	-86.54773	-258.48021	1647.22244	-352.67082	-264.03639	1626.41586	-627.36973	-352.26097	1604.93042	-622.51202	-307.26551	1699.5932	-595.20561	-304.24238	1736.21857	-935.96115	-344.4138	1761.96732	-931.98975	-380.58636	1731.64154	-927.38213	-239.43657	1619.00421	13.66336	-243.94239	1647.02286	270.55016	-239.59217	1562.19543	292.04952	-221.53753	1654.30832	602.24834	-239.79837	1697.84714	601.12064	-289.32617	1677.10358	598.86997	-426.73439	1067.48558	-435.03384	-372.31567	1040.95543	48.27394	-430.99033	560.72392	-256.1935	-326.60965	579.36794	-326.2632	-367.72636	564.17953	-164.04078	-381.16592	539.20753	-98.82826	-254.5566	556.20453	-39.6197	-256.3204	548.06789	-189.49011	-297.13467	140.15506	-271.10985	-298.88807	154.92314	-191.25298	-216.93388	142.27304	-216.29541	-332.36427	193.25918	-117.57945	-259.08978	185.97094	-75.09706	-265.18978	194.47094	-162.69706	-469.68048	1043.78891	1743.7027	-436.0487	1063.11066	1456.96426	-273.74704	1133.70575	1743.95477	-409.78981	1570.27557	1583.47076	-267.76598	1596.14502	1592.02271	-451.49666	1774.81293	1575.31235	-291.71642	1725.33722	1495.31342	-295.24879	1735.82321	1651.54343	-299.61042	1596.51855	1503.41141	-421.90212	1739.88113	1296.60797	-456.23096	1747.56531	1361.43921	-355.68207	1766.95129	1341.75003	-446.66653	2016.93619	1327.42111	-399.80652	2014.07928	1359.20303	-433.44765	2000.75317	1401.13556	-319.40134	1582.72766	1769.19037	-425.3381	1542.5972	2032.61688	-331.68713	1593.83713	2018.05832	-348.96503	1519.58679	2042.13852	-368.58505	1620.14236	2279.96017	-397.25166	1650.68085	2267.64893	-439.47254	1623.63113	2258.2225	-344.05781	1005.17937	1410.43045	-327.43382	1010.89203	1810.8284	-378.13736	454.87225	1451.43356	-278.95884	491.82083	1423.64822	-285.49675	459.02985	1544.24072	-358.74794	448.07251	1772.30759	-246.42483	486.66733	1787.85629	-318.33843	444.42261	1680.45151	-324.96742	130.57438	1418.03696	-295.62447	127.28971	1483.13248	-244.63867	128.97074	1418.08899	-323.38684	135.04484	1793.04977	-250.78217	125.15222	1806.93222	-294.43113	124.49993	1733.58704	-250.89563	1149.71344	1527.50076	-325.85037	1584.33105	286.89072
